<svg width="71" height="70" viewBox="0 0 71 70" fill="none" xmlns="http://www.w3.org/2000/svg">
<g clip-path="url(#clip0)">
<path d="M35.9854 0C16.6552 0 0.985352 15.6699 0.985352 35C0.985352 54.3301 16.6552 70 35.9854 70C55.3155 70 70.9854 54.3301 70.9854 35C70.9854 15.6699 55.3155 0 35.9854 0Z" fill="#40B3E0"/>
<path d="M53.0157 20.1332L46.7641 51.6521C46.7641 51.6521 45.8899 53.838 43.4856 52.7888L29.0596 41.7288L23.8139 39.1935L14.9835 36.2207C14.9835 36.2207 13.6284 35.74 13.4971 34.6908C13.3659 33.6416 15.0273 33.0734 15.0273 33.0734L50.1301 19.3031C50.1301 19.3031 53.0154 18.0354 53.0154 20.1338" fill="white"/>
<path d="M27.9511 51.2979C27.9511 51.2979 27.53 51.2585 27.005 49.5971C26.4808 47.9359 23.814 39.1931 23.814 39.1931L45.0158 25.729C45.0158 25.729 46.2399 24.9858 46.1962 25.729C46.1962 25.729 46.4147 25.8602 45.7587 26.4722C45.1033 27.0844 29.1036 41.4664 29.1036 41.4664" fill="#D2E5F1"/>
<path d="M34.5911 45.9691L28.8852 51.1715C28.8852 51.1715 28.439 51.51 27.9512 51.2978L29.0438 41.6345" fill="#B5CFE4"/>
</g>
<defs>
<clipPath id="clip0">
<rect width="70" height="70" fill="white" transform="translate(0.985352)"/>
</clipPath>
</defs>
</svg>
