<svg width="76" height="75" viewBox="0 0 76 75" fill="none" xmlns="http://www.w3.org/2000/svg">
<g clip-path="url(#clip0)">
<path d="M67.0672 57.8049C63.7046 60.7805 58.8314 62.9146 52.4473 64.2073C46.0633 65.5 39.4844 65.878 32.7105 65.3415L19.845 75V62.9268C15.6052 61.6098 12.2914 59.9024 9.90348 57.8049C7.07697 55.3171 4.88399 51.7439 3.32453 47.0854C1.76508 42.4268 0.985352 37.6707 0.985352 32.8171C0.985352 27.9634 1.76508 23.2073 3.32453 18.5488C4.88399 13.8902 7.08915 10.3049 9.94003 7.79268C12.7909 5.28049 16.8723 3.35366 22.1842 2.0122C27.4961 0.670732 32.9298 0 38.4854 0C44.0409 0 49.4746 0.670732 54.7865 2.0122C60.0984 3.35366 64.1798 5.28049 67.0307 7.79268C69.8815 10.3049 72.0867 13.8902 73.6462 18.5488C75.2056 23.2073 75.9854 27.9634 75.9854 32.8171C75.9854 37.6707 75.2056 42.4268 73.6462 47.0854C72.0867 51.7439 69.8937 55.3171 67.0672 57.8049ZM47.6959 39.878L52.4473 40.6829C52.0575 34.8293 49.8036 29.8293 45.6856 25.6829C41.5677 21.5366 36.5848 19.2683 30.7368 18.878L31.5409 23.6341C35.7319 24.1707 39.3382 25.9512 42.3596 28.9756C45.3811 32 47.1598 35.6341 47.6959 39.878ZM32.345 28.5366L33.2222 33.8049C35.1715 34.7805 36.6091 36.2195 37.5351 38.1219L42.7982 39C42.2134 36.4146 40.9707 34.1829 39.0701 32.3049C37.1696 30.4268 34.9278 29.1707 32.345 28.5366ZM24.5234 32.8537V28.1707C24.5234 27.3415 24.2188 26.5122 23.6096 25.6829C23.0005 24.8537 22.3547 24.2561 21.6725 23.8902C20.9902 23.5244 20.4785 23.4878 20.1374 23.7805L16.7748 27.2195C14.8742 29.122 14.594 32.0854 15.9342 36.1098C17.2743 40.1341 19.8328 44.0366 23.6096 47.8171C27.3864 51.5976 31.2851 54.1585 35.3055 55.5C39.326 56.8415 42.2622 56.561 44.114 54.6585L47.5497 51.2195C47.8908 50.9268 47.8786 50.4268 47.5131 49.7195C47.1476 49.0122 46.5507 48.3659 45.7222 47.7805C44.8937 47.1951 44.0653 46.9024 43.2368 46.9024H38.5584L35.8538 49.2439C33.7095 48.6585 31.0414 46.7683 27.8494 43.5732C24.6574 40.378 22.769 37.6829 22.1842 35.4878L24.5234 32.8537ZM29.2017 9.43902L29.9327 14.1951C34.806 14.2927 39.3138 15.5732 43.4561 18.0366C47.5984 20.5 50.8879 23.7927 53.3245 27.9146C55.7612 32.0366 57.0526 36.5366 57.1988 41.4146L61.9503 42.2195C61.9503 37.7805 61.0853 33.5366 59.3552 29.4878C57.6252 25.439 55.2982 21.9512 52.3742 19.0244C49.4503 16.0976 45.9659 13.7683 41.921 12.0366C37.8762 10.3049 33.6364 9.43902 29.2017 9.43902Z" fill="#7C529E"/>
</g>
<defs>
<clipPath id="clip0">
<rect width="75" height="75" fill="white" transform="translate(0.985352)"/>
</clipPath>
</defs>
</svg>
