<svg width="76" height="75" viewBox="0 0 76 75" fill="none" xmlns="http://www.w3.org/2000/svg">
<g clip-path="url(#clip0)">
<g filter="url(#filter0_f)">
<path d="M2.83008 73.249L7.85596 54.9823C4.76572 49.6372 3.11865 43.5654 3.13564 37.3582C3.13564 17.9072 19.0286 2.09302 38.5556 2.09302C48.0302 2.09302 56.9276 5.76335 63.6009 12.4273C70.2908 19.0912 73.9755 27.954 73.9585 37.3751C73.9585 56.8258 58.0652 72.6403 38.5386 72.6403H38.5216C32.5957 72.6403 26.7715 71.152 21.5927 68.344L2.83008 73.249ZM22.4757 61.9506L23.5453 62.5935C28.062 65.2658 33.2408 66.6695 38.5216 66.6864H38.5386C54.7544 66.6864 67.9644 53.5445 67.9644 37.3751C67.9644 29.5439 64.9081 22.1866 59.3558 16.6386C53.8034 11.091 46.4001 8.04662 38.5386 8.04662C22.3058 8.04662 9.09551 21.1885 9.09551 37.3579C9.09551 42.8889 10.6406 48.2843 13.5952 52.9526L14.2913 54.0689L11.32 64.8768L22.4757 61.9506Z" fill="black" fill-opacity="0.24"/>
</g>
<path d="M4.43652 71.3635L9.23242 53.9413C6.27514 48.8311 4.71947 43.0359 4.72158 37.1375C4.72158 18.5962 19.881 3.5127 38.4774 3.5127C47.5161 3.5127 55.9847 7.02048 62.3567 13.3678C68.7288 19.7153 72.2339 28.1676 72.2339 37.1541C72.2339 55.6952 57.0745 70.7786 38.4777 70.7786H38.461C32.8097 70.7786 27.2591 69.3589 22.329 66.6863L4.43652 71.3638V71.3635Z" fill="url(#paint0_linear)"/>
<path d="M3.21338 72.5827L8.17685 54.5427C5.125 49.2644 3.49814 43.2677 3.51514 37.1375C3.51514 17.9282 19.2109 2.31006 38.4956 2.31006C47.8524 2.31006 56.6392 5.93457 63.2298 12.5159C69.8365 19.0972 73.4755 27.85 73.4588 37.1541C73.4588 56.3635 57.763 71.9816 38.4783 71.9816H38.4619C32.6208 71.9793 26.8732 70.5207 21.7431 67.7387L3.21338 72.583V72.5827ZM22.6149 61.4247L23.6714 62.0594C28.1321 64.6987 33.2465 66.0852 38.4619 66.1018H38.4786C54.4929 66.1018 67.5394 53.123 67.5394 37.1541C67.5394 29.4204 64.5209 22.1541 59.0374 16.6753C53.5539 11.1965 46.2426 8.18983 38.4786 8.18983C22.4474 8.18983 9.40117 21.1686 9.40117 37.1375C9.40117 42.5997 10.927 47.9282 13.8449 52.5382L14.5325 53.6407L11.5979 64.3143L22.6149 61.4247Z" fill="white"/>
<path d="M29.7412 22.555C29.087 21.1017 28.3994 21.0682 27.7792 21.0515C27.2762 21.0349 26.6894 21.0349 26.1022 21.0349C25.5154 21.0349 24.5762 21.252 23.7714 22.1205C22.9663 22.9893 20.7192 25.094 20.7192 29.3871C20.7192 33.6629 23.8552 37.8054 24.2911 38.39C24.7271 38.9748 30.3447 48.0448 39.2155 51.536C46.5939 54.4426 48.1033 53.8578 49.6962 53.7075C51.3061 53.5572 54.8612 51.6028 55.5989 49.565C56.3199 47.5271 56.3199 45.7899 56.102 45.4225C55.884 45.0548 55.2972 44.8379 54.425 44.4034C53.5531 43.9692 49.2603 41.8645 48.4555 41.5639C47.6504 41.2633 47.0636 41.1297 46.4935 41.9981C45.9064 42.8666 44.2297 44.821 43.7264 45.4058C43.2233 45.9904 42.7036 46.0572 41.8314 45.623C40.9596 45.1887 38.1424 44.2697 34.8055 41.2966C32.2063 38.9914 30.4455 36.135 29.9422 35.2665C29.4392 34.398 29.8921 33.93 30.328 33.496C30.7136 33.1117 31.1999 32.4769 31.6361 31.9759C32.0721 31.4748 32.2229 31.1074 32.508 30.5226C32.7931 29.938 32.6589 29.437 32.4409 29.0027C32.223 28.5682 30.5126 24.2754 29.7412 22.555Z" fill="white"/>
</g>
<defs>
<filter id="filter0_f" x="-3.16992" y="-3.90698" width="83.1285" height="83.156" filterUnits="userSpaceOnUse" color-interpolation-filters="sRGB">
<feFlood flood-opacity="0" result="BackgroundImageFix"/>
<feBlend mode="normal" in="SourceGraphic" in2="BackgroundImageFix" result="shape"/>
<feGaussianBlur stdDeviation="3" result="effect1_foregroundBlur"/>
</filter>
<linearGradient id="paint0_linear" x1="38.3338" y1="71.359" x2="38.3338" y2="3.50862" gradientUnits="userSpaceOnUse">
<stop stop-color="#20B038"/>
<stop offset="1" stop-color="#60D66A"/>
</linearGradient>
<clipPath id="clip0">
<rect width="75" height="75" fill="white" transform="translate(0.985352)"/>
</clipPath>
</defs>
</svg>
