<svg width="16" height="8" viewBox="0 0 16 8" fill="none" xmlns="http://www.w3.org/2000/svg">
<path d="M13.9998 7.99968C13.7662 8.00013 13.5397 7.91876 13.3598 7.76968L7.99982 3.28968L2.62982 7.60967C2.52753 7.69274 2.40984 7.75477 2.2835 7.7922C2.15716 7.82964 2.02467 7.84173 1.89364 7.82779C1.76261 7.81385 1.63563 7.77415 1.51999 7.71098C1.40435 7.64781 1.30234 7.5624 1.21982 7.45968C1.13675 7.35739 1.07472 7.23969 1.03729 7.11335C0.99986 6.98701 0.987766 6.85452 1.0017 6.72349C1.01564 6.59246 1.05534 6.46548 1.11852 6.34985C1.18169 6.23421 1.26709 6.1322 1.36982 6.04968L7.36982 1.21968C7.54875 1.07259 7.7732 0.992187 8.00482 0.992187C8.23645 0.992187 8.46089 1.07259 8.63982 1.21968L14.6398 6.21968C14.7411 6.30362 14.8248 6.40672 14.8861 6.52307C14.9475 6.63942 14.9853 6.76673 14.9974 6.8977C15.0094 7.02868 14.9956 7.16075 14.9565 7.28636C14.9175 7.41196 14.854 7.52863 14.7698 7.62968C14.6768 7.74439 14.5595 7.83706 14.4263 7.90104C14.2932 7.96501 14.1475 7.9987 13.9998 7.99968Z" fill="black"/>
</svg>
