<svg width="285" height="259" viewBox="0 0 285 259" fill="none" xmlns="http://www.w3.org/2000/svg">
<path d="M21.6748 106.834C22.8519 105.842 24.6618 106.496 24.9327 108.012L26.5039 116.802C26.7748 118.318 25.3034 119.558 23.8554 119.035L15.4569 116.001C14.009 115.477 13.6703 113.583 14.8474 112.59L21.6748 106.834Z" fill="#FF560A" fill-opacity="0.6"/>
<path d="M21.7406 92.0622C21.94 91.3187 22.8695 91.0699 23.4137 91.6144L27.5424 95.7453C28.0866 96.2898 27.8373 97.2192 27.0937 97.4182L21.4519 98.9283C20.7083 99.1274 20.028 98.4468 20.2275 97.7033L21.7406 92.0622Z" fill="#FF560A" fill-opacity="0.6"/>
<path d="M254.362 91.5082C253.975 92.1737 253.013 92.171 252.63 91.5032L247.898 83.2518C247.515 82.5841 247.998 81.7521 248.768 81.7543L258.28 81.7818C259.05 81.7841 259.529 82.6188 259.142 83.2843L254.362 91.5082Z" fill="#FF560A" fill-opacity="0.6"/>
<path d="M229.69 59.8542C228.16 60.0189 227.025 58.4648 227.647 57.0567L232.856 45.2799C233.479 43.8718 235.392 43.6659 236.3 44.9092L243.895 55.3083C244.803 56.5516 244.024 58.3117 242.494 58.4764L229.69 59.8542Z" fill="#FF560A" fill-opacity="0.6"/>
<path d="M181.1 242.151C180.522 241.643 180.71 240.699 181.439 240.452L193.227 236.461C193.956 236.214 194.679 236.849 194.528 237.604L192.091 249.808C191.94 250.563 191.029 250.871 190.45 250.363L181.1 242.151Z" fill="#FF560A" fill-opacity="0.6"/>
<path d="M160.144 246.607C160.029 245.846 160.782 245.246 161.498 245.528L168.348 248.218C169.064 248.499 169.207 249.451 168.605 249.93L162.851 254.517C162.249 254.997 161.353 254.645 161.239 253.884L160.144 246.607Z" fill="#FF560A" fill-opacity="0.6"/>
<path d="M123.811 253.65C122.896 253.441 122.55 252.32 123.188 251.632L127.312 247.185C127.951 246.497 129.095 246.758 129.372 247.654L131.161 253.45C131.437 254.346 130.64 255.207 129.724 254.998L123.811 253.65Z" fill="#FF560A" fill-opacity="0.6"/>
<path d="M73.9431 235.249C73.8623 234.654 74.456 234.194 75.0118 234.422L80.1336 236.519C80.6894 236.747 80.7904 237.491 80.3154 237.858L75.9382 241.245C75.4632 241.613 74.7684 241.328 74.6876 240.733L73.9431 235.249Z" fill="#FF560A" fill-opacity="0.6"/>
<path d="M90.362 25.5082C89.9752 26.1737 89.013 26.171 88.63 25.5032L83.8978 17.2518C83.5149 16.5841 83.9984 15.7521 84.7682 15.7543L94.2802 15.7818C95.0499 15.7841 95.5287 16.6188 95.1418 17.2843L90.362 25.5082Z" fill="#FF560A" fill-opacity="0.6"/>
<path d="M42.8861 40.2728C41.813 39.1688 42.3374 37.3171 43.8301 36.9398L60.5369 32.7164C62.0295 32.3391 63.3709 33.7191 62.9514 35.2004L58.2555 51.7806C57.8359 53.262 55.9701 53.7336 54.897 52.6296L42.8861 40.2728Z" fill="#FF560A" fill-opacity="0.6"/>
<path d="M10.7073 140.97C10.5455 139.438 12.1017 138.306 13.5086 138.932L27.4214 145.116C28.8283 145.742 29.0306 147.655 27.7856 148.561L15.4733 157.518C14.2283 158.423 12.4697 157.642 12.3078 156.111L10.7073 140.97Z" fill="#FF560A" fill-opacity="0.6"/>
<path d="M33.4914 188.094C34.06 187.575 34.9771 187.866 35.1423 188.618L35.5368 190.414C35.7019 191.166 34.9912 191.814 34.2575 191.582L32.505 191.025C31.7712 190.792 31.5648 189.853 32.1333 189.334L33.4914 188.094Z" fill="#FF560A" fill-opacity="0.6"/>
<path d="M242.006 188.657C241.733 187.142 243.203 185.899 244.651 186.421L253.906 189.752C255.354 190.273 255.695 192.167 254.519 193.161L247.007 199.51C245.832 200.504 244.021 199.852 243.748 198.337L242.006 188.657Z" fill="#FF560A" fill-opacity="0.6"/>
<path d="M259.756 151.192C260.245 150.597 261.194 150.754 261.464 151.475L263.424 156.693C263.695 157.414 263.084 158.157 262.325 158.032L256.825 157.12C256.066 156.994 255.728 156.093 256.216 155.498L259.756 151.192Z" fill="#FF560A" fill-opacity="0.6"/>
<path d="M257.046 129.226C256.773 127.711 258.243 126.469 259.692 126.99L275.433 132.656C276.881 133.178 277.222 135.072 276.046 136.065L263.269 146.865C262.093 147.859 260.282 147.207 260.009 145.691L257.046 129.226Z" fill="#FF560A" fill-opacity="0.6"/>
<path d="M151.669 5.0326C151.666 4.26281 152.497 3.77815 153.166 4.16022L160.013 8.07496C160.681 8.45703 160.685 9.41927 160.02 9.80699L153.206 13.7797C152.541 14.1674 151.706 13.6899 151.703 12.9201L151.669 5.0326Z" fill="#FF560A" fill-opacity="0.6"/>
<path d="M210.598 27.6034C210.97 26.9294 211.932 26.9107 212.33 27.5698L214.51 31.1818C214.907 31.8409 214.442 32.6834 213.673 32.6983L209.455 32.78C208.685 32.795 208.188 31.9711 208.56 31.2971L210.598 27.6034Z" fill="#FF560A" fill-opacity="0.6"/>
<path d="M46.362 211.507C45.9752 212.173 45.013 212.17 44.63 211.502L39.8978 203.251C39.5149 202.583 39.9984 201.751 40.7682 201.753L50.2802 201.781C51.0499 201.783 51.5287 202.618 51.1418 203.283L46.362 211.507Z" fill="#FF560A" fill-opacity="0.6"/>
</svg>
