<svg width="21" height="18" viewBox="0 0 21 18" fill="none" xmlns="http://www.w3.org/2000/svg">
<path fill-rule="evenodd" clip-rule="evenodd" d="M17.3175 1.53268C17.6623 1.19082 18.1279 0.998417 18.6135 0.997077C19.0991 0.995738 19.5657 1.18557 19.9125 1.52552C20.2592 1.86548 20.4583 2.32825 20.4665 2.81379C20.4748 3.29932 20.2917 3.76861 19.9567 4.12018L10.1193 16.417C9.9502 16.5991 9.74614 16.7452 9.5193 16.8467C9.29245 16.9481 9.04748 17.0028 8.79904 17.0074C8.55059 17.012 8.30376 16.9664 8.07332 16.8734C7.84287 16.7805 7.63354 16.642 7.45784 16.4663L0.939808 9.94576C0.758223 9.77655 0.612578 9.57251 0.511562 9.3458C0.410546 9.11908 0.356229 8.87435 0.35185 8.62619C0.347472 8.37803 0.393122 8.13153 0.486078 7.90139C0.579033 7.67126 0.717389 7.4622 0.892893 7.2867C1.0684 7.11119 1.27745 6.97284 1.50759 6.87988C1.73772 6.78693 1.98422 6.74128 2.23238 6.74566C2.48054 6.75003 2.72528 6.80435 2.95199 6.90537C3.1787 7.00638 3.38275 7.15203 3.55195 7.33361L8.71217 12.4914L17.2706 1.5869C17.2859 1.56781 17.3024 1.5497 17.3199 1.53268H17.3175Z" fill="white"/>
</svg>
