<svg width="30" height="30" viewBox="0 0 30 30" fill="none" xmlns="http://www.w3.org/2000/svg">
<g clip-path="url(#clip0)">
<path d="M27.3761 3.55713H2.76591C2.36195 3.55713 1.98375 3.65644 1.6416 3.82014L15.0127 17.1912L18.0096 14.3111C18.0096 14.3111 18.0098 14.3108 18.0099 14.3107C18.01 14.3106 18.0102 14.3104 18.0102 14.3104L28.5008 3.82038C28.1586 3.65656 27.7802 3.55713 27.3761 3.55713Z" fill="#FF560A"/>
<path d="M29.7365 5.05811L19.8643 14.9298L29.7362 24.8017C29.8999 24.4596 29.9992 24.0814 29.9992 23.6774V6.18201C29.9992 5.77827 29.9001 5.40014 29.7365 5.05811Z" fill="#FF560A"/>
<path d="M0.404616 5.05762C0.240917 5.39977 0.141602 5.77796 0.141602 6.18193V23.6773C0.141602 24.0811 0.2408 24.4593 0.404383 24.8014L10.2766 14.9296L0.404616 5.05762Z" fill="#FF560A"/>
<path d="M18.628 16.1666L15.6307 19.0471C15.4598 19.218 15.236 19.3034 15.0122 19.3034C14.7884 19.3034 14.5645 19.218 14.3937 19.0471L11.513 16.1665L1.64062 26.0383C1.98284 26.2021 2.36126 26.3015 2.76535 26.3015H27.3756C27.7795 26.3015 28.1577 26.2022 28.4999 26.0385L18.628 16.1666Z" fill="#FF560A"/>
</g>
<defs>
<clipPath id="clip0">
<rect width="29.8588" height="29.8588" fill="white" transform="translate(0.141602)"/>
</clipPath>
</defs>
</svg>
