<svg width="15" height="11" viewBox="0 0 15 11" fill="none" xmlns="http://www.w3.org/2000/svg">
<path d="M7.49973 7.07157C7.91665 7.07157 8.3165 6.90601 8.6113 6.61131C8.90611 6.31661 9.07173 5.91691 9.07173 5.50014C9.07173 5.08337 8.90611 4.68367 8.6113 4.38897C8.3165 4.09427 7.91665 3.92871 7.49973 3.92871C7.08281 3.92871 6.68297 4.09427 6.38816 4.38897C6.09336 4.68367 5.92773 5.08337 5.92773 5.50014C5.92773 5.91691 6.09336 6.31661 6.38816 6.61131C6.68297 6.90601 7.08281 7.07157 7.49973 7.07157Z" fill="#2C2C2C"/>
<path fill-rule="evenodd" clip-rule="evenodd" d="M0 5.5C1.00136 2.31236 3.9803 0 7.5 0C11.0197 0 13.9986 2.31236 15 5.5C13.9986 8.68764 11.0197 11 7.5 11C3.9803 11 1.00136 8.68764 0 5.5ZM10.644 5.5C10.644 6.33354 10.3128 7.13294 9.72314 7.72234C9.13353 8.31174 8.33384 8.64286 7.5 8.64286C6.66616 8.64286 5.86647 8.31174 5.27686 7.72234C4.68725 7.13294 4.356 6.33354 4.356 5.5C4.356 4.66646 4.68725 3.86706 5.27686 3.27766C5.86647 2.68826 6.66616 2.35714 7.5 2.35714C8.33384 2.35714 9.13353 2.68826 9.72314 3.27766C10.3128 3.86706 10.644 4.66646 10.644 5.5Z" fill="#2C2C2C"/>
</svg>
