<svg width="30" height="30" viewBox="0 0 30 30" fill="none" xmlns="http://www.w3.org/2000/svg">
<g clip-path="url(#clip0)">
<path d="M21.8466 0H8.15281C3.69605 0 0.0703125 3.62573 0.0703125 8.0825V21.7765C0.0703125 26.233 3.69605 29.8588 8.15281 29.8588H21.8468C26.3033 29.8588 29.9291 26.233 29.9291 21.7765V8.0825C29.9291 3.62573 26.3033 0 21.8466 0V0ZM14.9997 23.0937C10.4978 23.0937 6.83542 19.4313 6.83542 14.9294C6.83542 10.4275 10.4978 6.76511 14.9997 6.76511C19.5016 6.76511 23.164 10.4275 23.164 14.9294C23.164 19.4313 19.5016 23.0937 14.9997 23.0937ZM23.3592 8.69051C22.0288 8.69051 20.9468 7.60844 20.9468 6.27806C20.9468 4.94768 22.0288 3.86538 23.3592 3.86538C24.6896 3.86538 25.7719 4.94768 25.7719 6.27806C25.7719 7.60844 24.6896 8.69051 23.3592 8.69051Z" fill="#FF560A"/>
<path d="M15.0007 8.51562C11.4643 8.51562 8.58691 11.3928 8.58691 14.9295C8.58691 18.4659 11.4643 21.3433 15.0007 21.3433C18.5374 21.3433 21.4146 18.4659 21.4146 14.9295C21.4146 11.3928 18.5374 8.51562 15.0007 8.51562Z" fill="#FF560A"/>
<path d="M23.3593 5.61621C22.9943 5.61621 22.6973 5.91327 22.6973 6.27821C22.6973 6.64315 22.9943 6.94021 23.3593 6.94021C23.7244 6.94021 24.0215 6.64338 24.0215 6.27821C24.0215 5.91304 23.7244 5.61621 23.3593 5.61621Z" fill="#FF560A"/>
</g>
<defs>
<clipPath id="clip0">
<rect width="29.8588" height="29.8588" fill="white" transform="translate(0.0703125)"/>
</clipPath>
</defs>
</svg>
