<svg width="19" height="27" viewBox="0 0 19 27" fill="none" xmlns="http://www.w3.org/2000/svg">
<path d="M9.33333 0.666992C4.17333 0.666992 0 4.84033 0 10.0003C0 15.5603 5.89333 23.227 8.32 26.147C8.85333 26.787 9.82667 26.787 10.36 26.147C12.7733 23.227 18.6667 15.5603 18.6667 10.0003C18.6667 4.84033 14.4933 0.666992 9.33333 0.666992ZM9.33333 13.3337C8.44928 13.3337 7.60143 12.9825 6.97631 12.3574C6.35119 11.7322 6 10.8844 6 10.0003C6 9.11627 6.35119 8.26843 6.97631 7.6433C7.60143 7.01818 8.44928 6.66699 9.33333 6.66699C10.2174 6.66699 11.0652 7.01818 11.6904 7.6433C12.3155 8.26843 12.6667 9.11627 12.6667 10.0003C12.6667 10.8844 12.3155 11.7322 11.6904 12.3574C11.0652 12.9825 10.2174 13.3337 9.33333 13.3337Z" fill="#FF560A"/>
</svg>
