<svg width="49" height="31" viewBox="0 0 49 31" fill="none" xmlns="http://www.w3.org/2000/svg">
<path d="M14.139 4.66704C15.581 2.46471 18.8086 2.46471 20.2506 4.66704L28.3842 17.0892C29.9748 19.5184 28.232 22.7426 25.3284 22.7426H9.06119C6.15756 22.7426 4.41479 19.5184 6.00537 17.0892L14.139 4.66704Z" fill="#FF560A" fill-opacity="0.6"/>
<path d="M21.2376 4.66704C22.6796 2.46471 25.9072 2.46471 27.3493 4.66704L35.4829 17.0892C37.0734 19.5184 35.3307 22.7426 32.427 22.7426H16.1598C13.2562 22.7426 11.5134 19.5184 13.104 17.0892L21.2376 4.66704Z" fill="#FF560A" fill-opacity="0.6"/>
<path d="M28.7493 4.66704C30.1913 2.46471 33.419 2.46471 34.861 4.66704L42.9946 17.0892C44.5852 19.5184 42.8424 22.7426 39.9388 22.7426H23.6715C20.7679 22.7426 19.0251 19.5184 20.6157 17.0892L28.7493 4.66704Z" fill="#FF560A" fill-opacity="0.6"/>
</svg>
