<svg width="20" height="20" viewBox="0 0 20 20" fill="none" xmlns="http://www.w3.org/2000/svg">
<g clip-path="url(#clip0)">
<path d="M15.2143 0C13.9362 0 12.7344 0.498064 11.8305 1.40198L8.10379 5.12872C8.3886 5.08895 8.67315 5.04578 8.96429 5.04578C9.76704 5.04578 10.5536 5.20172 11.2768 5.49089L13.5981 3.16955C14.0302 2.73802 14.604 2.49998 15.2143 2.49998C16.4747 2.49998 17.5001 3.52536 17.5001 4.78575C17.5001 5.39612 17.2621 5.96983 16.8305 6.40194L12.6521 10.5804C11.7878 11.4435 10.284 11.4441 9.41968 10.581L7.65332 12.3499C8.55666 13.2526 9.75843 13.75 11.0359 13.75C12.314 13.75 13.5157 13.2519 14.4197 12.348L18.5982 8.16955C19.5021 7.26563 20.0001 6.06382 20.0001 4.78575C20.0001 2.14661 17.8535 0 15.2143 0V0Z" fill="white"/>
<path d="M8.7014 14.5313L6.40198 16.8308C5.96987 17.2623 5.39612 17.5003 4.78578 17.5003C3.5254 17.5003 2.50002 16.4749 2.50002 15.2146C2.50002 14.6042 2.73805 14.0305 3.16959 13.5984L7.34807 9.41988C8.21234 8.55685 9.71623 8.55623 10.5805 9.41926L12.3469 7.65045C10.5396 5.84502 7.38837 5.84444 5.5805 7.65227L1.40198 11.8308C0.498025 12.7347 0 13.9364 0 15.2145C0 17.8537 2.14661 20.0003 4.78575 20.0003C6.06382 20.0003 7.26559 19.5022 8.16955 18.5983L11.8468 14.921C11.5783 14.9571 11.3112 15.0003 11.0357 15.0003C10.2206 15.0003 9.43114 14.8373 8.7014 14.5313Z" fill="white"/>
</g>
<defs>
<clipPath id="clip0">
<rect width="20" height="20" fill="white"/>
</clipPath>
</defs>
</svg>
