<svg width="58" height="58" viewBox="0 0 58 58" fill="none" xmlns="http://www.w3.org/2000/svg">
<path d="M24.1669 20.5419V37.4586C24.1669 38.4494 25.3027 39.0294 26.1002 38.4252L37.3861 29.9669C38.0386 29.4836 38.0386 28.5169 37.3861 28.0336L26.1002 19.5752C25.9207 19.4406 25.7072 19.3586 25.4837 19.3384C25.2602 19.3183 25.0356 19.3608 24.8348 19.4611C24.6341 19.5615 24.4653 19.7157 24.3474 19.9066C24.2294 20.0975 24.1669 20.3175 24.1669 20.5419ZM26.5836 7.80606C26.5836 6.25939 25.1577 5.07523 23.6594 5.41356C20.9527 6.04189 18.3911 7.10523 16.1194 8.55523C14.8386 9.37689 14.6452 11.2136 15.7327 12.3011C16.5061 13.0744 17.7386 13.2677 18.6569 12.6877C20.5177 11.5036 22.5719 10.6336 24.7952 10.1502C25.8586 9.90856 26.5836 8.91773 26.5836 7.80606ZM12.3252 15.7327C11.2136 14.6452 9.40106 14.8144 8.57939 16.1194C7.12939 18.3911 6.06606 20.9527 5.43773 23.6594C5.09939 25.1577 6.25939 26.5836 7.80606 26.5836C8.89356 26.5836 9.90856 25.8586 10.1261 24.7952C10.6094 22.5961 11.5036 20.5177 12.6636 18.6811C13.2919 17.7386 13.0986 16.5061 12.3252 15.7327ZM7.80606 31.4169C6.25939 31.4169 5.07523 32.8427 5.41356 34.3411C6.04189 37.0477 7.10523 39.5852 8.55523 41.8811C9.37689 43.1861 11.2136 43.3552 12.3011 42.2677C13.0744 41.4944 13.2677 40.2619 12.6636 39.3436C11.4794 37.5069 10.6094 35.4527 10.1261 33.2294C9.90856 32.1419 8.91773 31.4169 7.80606 31.4169ZM16.1194 49.4211C18.4152 50.8711 20.9527 51.9344 23.6594 52.5627C25.1577 52.9011 26.5836 51.7169 26.5836 50.1944C26.5836 49.1069 25.8586 48.0919 24.7952 47.8744C22.626 47.3878 20.5574 46.5292 18.6811 45.3369C18.2228 45.0576 17.6827 44.9437 17.1507 45.014C16.6187 45.0844 16.1268 45.3348 15.7569 45.7236C15.496 45.9697 15.295 46.2723 15.1692 46.6082C15.0434 46.9441 14.9962 47.3043 15.0312 47.6612C15.0662 48.0182 15.1825 48.3624 15.3711 48.6674C15.5597 48.9725 15.8157 49.2303 16.1194 49.4211ZM53.1669 29.0002C53.1669 40.4311 45.1919 50.0494 34.4861 52.5386C32.9877 52.9011 31.5377 51.7169 31.5377 50.1702C31.5377 49.0586 32.2869 48.0919 33.3502 47.8261C41.9294 45.8444 48.3336 38.1594 48.3336 29.0002C48.3336 19.8411 41.9294 12.1561 33.3502 10.1744C32.2869 9.93273 31.5377 8.94189 31.5377 7.83023C31.5377 6.28356 32.9877 5.09939 34.4861 5.46189C45.1919 7.95106 53.1669 17.5694 53.1669 29.0002Z" fill="#2C2C2C"/>
</svg>
