<svg width="22" height="22" viewBox="0 0 22 22" fill="none" xmlns="http://www.w3.org/2000/svg">
<path d="M17.6407 9.66566H17.6088C16.9965 9.66566 16.481 10.1861 16.481 10.8551V11.7823C16.481 11.9669 16.3311 12.1169 16.1464 12.1169C15.9615 12.1169 15.8117 11.9669 15.8117 11.7823V10.0702C15.8117 9.40123 15.326 8.85704 14.7138 8.85704C14.0983 8.85704 13.6126 9.40123 13.6126 10.0702V11.8848C13.6126 12.0697 13.4626 12.2194 13.278 12.2194C13.0931 12.2194 12.9433 12.0697 12.9433 11.8848V9.57191C12.9433 8.90317 12.4383 8.37486 11.8262 8.37486H11.7922C11.1953 8.37486 10.6964 8.87591 10.6964 9.52149V12.1259C10.6964 12.3107 10.5464 12.4605 10.3617 12.4605C10.1768 12.4605 10.0271 12.3107 10.0271 12.1259V9.59694C10.0271 9.58872 10.0261 9.58013 10.0261 9.57173C10.0261 9.55118 10.0271 9.53064 10.0271 9.51029V3.59769C10.0271 2.92876 9.52228 2.38477 8.91031 2.38477C8.29816 2.38477 7.79357 2.92857 7.793 3.59694L7.78628 13.4017C7.7861 13.5431 7.69739 13.6691 7.56424 13.7168C7.43128 13.7644 7.28263 13.7233 7.19299 13.6141L6.02227 12.189C5.71358 11.8022 5.25791 11.5613 4.76434 11.5238C4.28123 11.4919 3.80652 11.6622 3.45394 11.994C3.44983 11.9978 3.44553 12.0022 3.44105 12.006L3.21191 12.1976L7.27086 19.9978C7.91159 21.229 9.1232 21.9999 10.4325 21.9999H15.1245C17.1212 21.9999 18.7472 20.2432 18.7493 18.0913C18.7504 16.9518 18.7515 16.097 18.7524 15.4085C18.7549 13.5679 18.7556 12.891 18.7509 10.8635C18.7495 10.1964 18.2514 9.66566 17.6407 9.66566Z" fill="white"/>
<path d="M5.86495 3.71477C6.04983 3.71477 6.1996 3.565 6.1996 3.38012C6.19568 2.41352 6.70904 1.51844 7.54548 1.03402C8.38192 0.549597 9.4137 0.549597 10.2501 1.03402C11.0866 1.51844 11.5999 2.41352 11.5958 3.38012C11.5958 3.565 11.7458 3.71477 11.9305 3.71477C12.1154 3.71477 12.2651 3.565 12.2651 3.38012C12.2698 2.17411 11.6289 1.05755 10.5852 0.453235C9.54144 -0.151078 8.25419 -0.151078 7.21046 0.453235C6.16673 1.05755 5.52581 2.17411 5.5303 3.38012C5.5303 3.565 5.68025 3.71477 5.86495 3.71477Z" fill="white"/>
</svg>
