<svg width="80" height="59" viewBox="0 0 80 59" fill="none" xmlns="http://www.w3.org/2000/svg">
<path d="M7.10224 53.6655C2.48107 48.9679 0 43.6993 0 35.1587C0 20.1299 11.0235 6.65988 27.054 0L31.0605 5.91703C16.0978 13.6633 13.1726 23.7154 12.0061 30.0532C14.4153 28.8595 17.5694 28.443 20.6606 28.7178C28.7544 29.4349 35.1343 35.7942 35.1343 43.6993C35.1343 47.6852 33.4799 51.5078 30.535 54.3262C27.5901 57.1446 23.596 58.728 19.4313 58.728C17.1282 58.7088 14.852 58.2513 12.7354 57.3821C10.6188 56.513 8.70388 55.2496 7.10224 53.6655ZM51.9679 53.6655C47.3468 48.9679 44.8657 43.6993 44.8657 35.1587C44.8657 20.1299 55.8892 6.65988 71.9197 0L75.9262 5.91703C60.9635 13.6633 58.0382 23.7154 56.8717 30.0532C59.281 28.8595 62.4351 28.443 65.5263 28.7178C73.6201 29.4349 80 35.7942 80 43.6993C80 47.6852 78.3456 51.5078 75.4007 54.3262C72.4558 57.1446 68.4617 58.728 64.297 58.728C61.9939 58.7088 59.7177 58.2513 57.6011 57.3821C55.4844 56.513 53.5696 55.2496 51.9679 53.6655Z" fill="#2C2C2C" fill-opacity="0.1"/>
</svg>
