<svg width="7" height="15" viewBox="0 0 7 15" fill="none" xmlns="http://www.w3.org/2000/svg">
<path d="M0.992376 14.4987C0.760685 14.4991 0.536149 14.4179 0.357747 14.2692C0.257338 14.1854 0.174339 14.0826 0.113502 13.9665C0.052665 13.8504 0.0151859 13.7234 0.00321141 13.5927C-0.0087631 13.462 0.00500241 13.3302 0.0437192 13.2049C0.082436 13.0795 0.145343 12.9631 0.228838 12.8623L4.67124 7.51417L0.387496 2.15605C0.305127 2.05399 0.243616 1.93656 0.206498 1.8105C0.169381 1.68444 0.157388 1.55224 0.171211 1.4215C0.185033 1.29076 0.224397 1.16406 0.28704 1.04868C0.349684 0.9333 0.434372 0.831514 0.536237 0.749174C0.638834 0.658339 0.758983 0.589824 0.889144 0.547927C1.0193 0.506031 1.15667 0.491659 1.29261 0.505713C1.42855 0.519767 1.56014 0.561943 1.67911 0.629595C1.79809 0.697247 1.90188 0.788913 1.98398 0.898842L6.77344 6.88557C6.91929 7.0641 6.99902 7.28805 6.99902 7.51916C6.99902 7.75027 6.91929 7.97422 6.77344 8.15276L1.81541 14.1395C1.71593 14.2602 1.58957 14.3557 1.44657 14.4181C1.30357 14.4805 1.14796 14.5081 0.992376 14.4987Z" fill="white"/>
</svg>
