<svg width="24" height="24" viewBox="0 0 24 24" fill="none" xmlns="http://www.w3.org/2000/svg">
<path d="M11.0398 17.2798C7.5838 17.2798 4.7998 14.4958 4.7998 11.0398C4.7998 7.5838 7.5838 4.7998 11.0398 4.7998C14.4958 4.7998 17.2798 7.5838 17.2798 11.0398C17.2798 14.4958 14.4958 17.2798 11.0398 17.2798ZM11.0398 5.7598C8.1118 5.7598 5.7598 8.1118 5.7598 11.0398C5.7598 13.9678 8.1118 16.3198 11.0398 16.3198C13.9678 16.3198 16.3198 13.9678 16.3198 11.0398C16.3198 8.1118 13.9678 5.7598 11.0398 5.7598Z" fill="#2C2C2C"/>
<path d="M15.6875 15.0083L19.9979 19.3187L19.3192 19.9974L15.0088 15.687L15.6875 15.0083Z" fill="#2C2C2C"/>
</svg>
