<svg width="22" height="22" viewBox="0 0 22 22" fill="none" xmlns="http://www.w3.org/2000/svg">
<path d="M21.9684 8.47587C21.8926 8.24251 21.691 8.07244 21.4482 8.03721L14.6281 7.04614L11.578 0.866096C11.4694 0.646097 11.2453 0.506836 11 0.506836C10.7547 0.506836 10.5306 0.646097 10.4221 0.866096L7.37181 7.04614L0.55184 8.03721C0.30911 8.07244 0.107373 8.24251 0.0315762 8.47583C-0.0442633 8.70919 0.0189864 8.96533 0.194685 9.13656L5.12954 13.9471L3.96475 20.7397C3.92324 20.9815 4.02267 21.2258 4.22114 21.3701C4.33342 21.4516 4.46641 21.4931 4.60004 21.4931C4.70265 21.4931 4.8056 21.4687 4.89987 21.4191L11 18.212L17.0999 21.419C17.3171 21.5332 17.5802 21.5142 17.7786 21.37C17.9771 21.2258 18.0766 20.9814 18.0351 20.7396L16.8699 13.9471L21.8053 9.13652C21.981 8.96533 22.0443 8.70919 21.9684 8.47587Z" fill="white"/>
</svg>
