<svg width="16" height="20" viewBox="0 0 16 20" fill="none" xmlns="http://www.w3.org/2000/svg">
<path d="M11.1506 7.92199C12.4766 6.71305 14.2698 5.07801 14.4332 1.17188H15.6172V0H0.382812V1.17188H1.56676C1.7302 5.07801 3.5234 6.71305 4.84941 7.92199C5.73891 8.73297 6.24219 9.22934 6.24219 10C6.24219 10.7707 5.73891 11.267 4.84941 12.078C3.5234 13.287 1.7302 14.922 1.56676 18.8281H0.382812V20H15.6172V18.8281H14.4332C14.2698 14.922 12.4766 13.287 11.1506 12.078C10.2611 11.267 9.75781 10.7707 9.75781 10C9.75781 9.22934 10.2611 8.73297 11.1506 7.92199ZM7.41406 14.3921C7.23309 14.4295 7.0543 14.4838 6.8798 14.556L3.29086 16.0411C3.87695 14.5509 4.82094 13.6898 5.63895 12.944C6.55184 12.1117 7.41406 11.3256 7.41406 10V14.3921ZM10.3611 12.944C11.1791 13.6898 12.123 14.5509 12.7091 16.0411L9.1202 14.5559C8.9457 14.4837 8.76691 14.4294 8.58594 14.3921V10C8.58594 11.3256 9.44816 12.1117 10.3611 12.944ZM3.27027 3.90625C2.98695 3.16801 2.79129 2.27664 2.74008 1.17188H13.2599C13.2087 2.27664 13.013 3.16801 12.7297 3.90625H3.27027Z" fill="white"/>
</svg>
