<svg width="30" height="26" viewBox="0 0 30 26" fill="none" xmlns="http://www.w3.org/2000/svg">
<path d="M29.9643 3.67136C28.8539 4.15843 27.6708 4.48128 26.4372 4.63804C27.7062 3.88037 28.6748 2.68975 29.1301 1.25466C27.947 1.96008 26.6406 2.45835 25.2485 2.73641C24.125 1.54019 22.5238 0.799316 20.7771 0.799316C17.3881 0.799316 14.6598 3.55006 14.6598 6.92224C14.6598 7.40745 14.7008 7.87399 14.8016 8.31814C9.71255 8.06994 5.20946 5.63085 2.18439 1.91529C1.65626 2.83158 1.34648 3.88037 1.34648 5.00941C1.34648 7.12939 2.43819 9.00863 4.0655 10.0966C3.08202 10.0779 2.11721 9.79242 1.29982 9.34267C1.29982 9.36133 1.29982 9.38559 1.29982 9.40985C1.29982 12.3845 3.42166 14.8554 6.20413 15.4245C5.70586 15.5608 5.16281 15.6261 4.59922 15.6261C4.20732 15.6261 3.8117 15.6037 3.44033 15.5216C4.23345 17.9457 6.48406 19.7279 9.16016 19.7858C7.0775 21.415 4.43313 22.3966 1.57042 22.3966C1.06842 22.3966 0.586942 22.3742 0.105469 22.3126C2.81702 24.0612 6.03058 25.0596 9.49607 25.0596C20.7603 25.0596 26.9187 15.7287 26.9187 7.64072C26.9187 7.37012 26.9094 7.10886 26.8963 6.84946C28.1112 5.98729 29.132 4.9105 29.9643 3.67136Z" fill="#FF560A"/>
</svg>
