<svg width="121" height="122" viewBox="0 0 121 122" fill="none" xmlns="http://www.w3.org/2000/svg">
<path d="M107.63 34.4134H13.0029C11.3322 34.4134 9.72985 35.0771 8.54846 36.2585C7.36707 37.4399 6.70337 39.0422 6.70337 40.7129V101.832C6.70337 103.502 7.36707 105.105 8.54846 106.286C9.72985 107.468 11.3322 108.131 13.0029 108.131H107.63C109.301 108.131 110.903 107.468 112.084 106.286C113.266 105.105 113.929 103.502 113.929 101.832V40.7129C113.929 39.0422 113.266 37.4399 112.084 36.2585C110.903 35.0771 109.301 34.4134 107.63 34.4134ZM81.0244 74.0535L48.2869 88.663C47.7772 88.8922 47.2182 88.9902 46.6609 88.9481C46.1036 88.906 45.5657 88.7252 45.0961 88.4222C44.6265 88.1191 44.2402 87.7034 43.9723 87.2129C43.7044 86.7224 43.5635 86.1727 43.5623 85.6138V56.3947C43.5635 55.8358 43.7044 55.2861 43.9723 54.7956C44.2402 54.3051 44.6265 53.8894 45.0961 53.5863C45.5657 53.2832 46.1036 53.1025 46.6609 53.0604C47.2182 53.0183 47.7772 53.1163 48.2869 53.3455L81.0244 67.9215C81.619 68.1837 82.1245 68.6131 82.4794 69.1575C82.8343 69.7018 83.0233 70.3377 83.0233 70.9875C83.0233 71.6373 82.8343 72.2732 82.4794 72.8175C82.1245 73.3619 81.619 73.7913 81.0244 74.0535Z" fill="#7B7A7A"/>
<path d="M100.994 10.9576C100.994 10.0689 100.641 9.21664 100.012 8.58824C99.3839 7.95984 98.5316 7.60681 97.6429 7.60681H23.925C23.0363 7.60681 22.184 7.95984 21.5556 8.58824C20.9273 9.21664 20.5742 10.0689 20.5742 10.9576V14.3084H100.994V10.9576Z" fill="#7B7A7A"/>
<path d="M107.629 24.3609C107.629 23.4723 107.276 22.62 106.647 21.9916C106.019 21.3632 105.166 21.0101 104.278 21.0101H17.1567C16.268 21.0101 15.4157 21.3632 14.7873 21.9916C14.1589 22.62 13.8059 23.4723 13.8059 24.3609V27.7118H107.629V24.3609Z" fill="#7B7A7A"/>
</svg>
