<svg width="31" height="22" viewBox="0 0 31 22" fill="none" xmlns="http://www.w3.org/2000/svg">
<path d="M28.9072 2.96155C28.0973 1.52086 27.2183 1.25586 25.4287 1.15509C23.6409 1.03379 19.1452 0.983398 15.2505 0.983398C11.3484 0.983398 6.85087 1.03379 5.06494 1.15322C3.279 1.25586 2.39817 1.51899 1.58078 2.96155C0.746603 4.40037 0.317383 6.87865 0.317383 11.2418C0.317383 11.2455 0.317383 11.2474 0.317383 11.2474C0.317383 11.2511 0.317383 11.253 0.317383 11.253V11.2567C0.317383 15.6012 0.746603 18.0981 1.58078 19.522C2.39817 20.9627 3.27714 21.2239 5.06307 21.3453C6.85087 21.4498 11.3484 21.5113 15.2505 21.5113C19.1452 21.5113 23.6409 21.4498 25.4305 21.3471C27.2202 21.2258 28.0992 20.9646 28.9091 19.5239C29.7507 18.1 30.1762 15.603 30.1762 11.2586C30.1762 11.2586 30.1762 11.253 30.1762 11.2492C30.1762 11.2492 30.1762 11.2455 30.1762 11.2436C30.1762 6.87865 29.7507 4.40037 28.9072 2.96155ZM11.5144 16.8459V5.64884L20.8453 11.2474L11.5144 16.8459Z" fill="#FF560A"/>
</svg>
