<svg width="19" height="19" viewBox="0 0 19 19" fill="none" xmlns="http://www.w3.org/2000/svg">
<path d="M17.625 9.625C17.625 5.20833 14.0417 1.625 9.625 1.625C5.20833 1.625 1.625 5.20833 1.625 9.625C1.625 14.0417 5.20833 17.625 9.625 17.625C14.0417 17.625 17.625 14.0417 17.625 9.625Z" fill="#DF2424"/>
<path fill-rule="evenodd" clip-rule="evenodd" d="M0.96875 9.625C0.96875 4.8459 4.8459 0.96875 9.625 0.96875C14.4041 0.96875 18.2812 4.8459 18.2812 9.625C18.2812 14.4041 14.4041 18.2812 9.625 18.2812C4.8459 18.2812 0.96875 14.4041 0.96875 9.625ZM9.625 2.28125C5.57077 2.28125 2.28125 5.57077 2.28125 9.625C2.28125 13.6792 5.57077 16.9688 9.625 16.9688C13.6792 16.9688 16.9688 13.6792 16.9688 9.625C16.9688 5.57077 13.6792 2.28125 9.625 2.28125Z" fill="white"/>
<path fill-rule="evenodd" clip-rule="evenodd" d="M6.41096 6.41096C6.66724 6.15468 7.08276 6.15468 7.33904 6.41096L12.589 11.661C12.8453 11.9172 12.8453 12.3328 12.589 12.589C12.3328 12.8453 11.9172 12.8453 11.661 12.589L6.41096 7.33904C6.15468 7.08276 6.15468 6.66724 6.41096 6.41096Z" fill="white"/>
<path fill-rule="evenodd" clip-rule="evenodd" d="M12.589 6.41096C12.8453 6.66724 12.8453 7.08276 12.589 7.33904L7.33904 12.589C7.08276 12.8453 6.66724 12.8453 6.41096 12.589C6.15468 12.3328 6.15468 11.9172 6.41096 11.661L11.661 6.41096C11.9172 6.15468 12.3328 6.15468 12.589 6.41096Z" fill="white"/>
</svg>
