<svg width="26" height="26" viewBox="0 0 26 26" fill="none" xmlns="http://www.w3.org/2000/svg">
<path d="M13.25 0.75C6.3471 0.75 0.75 6.3471 0.75 13.25C0.75 20.1529 6.3471 25.75 13.25 25.75C20.1529 25.75 25.75 20.1529 25.75 13.25C25.75 6.3471 20.1529 0.75 13.25 0.75ZM14.2684 16.3415C13.0435 18.0658 10.5826 18.5681 8.66295 17.8287C6.73772 17.0949 5.37054 15.0608 5.53516 12.9877C5.57701 10.4515 7.91239 8.22768 10.4487 8.31417C11.6652 8.25837 12.8092 8.78571 13.7411 9.53069C13.3421 9.9827 12.9319 10.418 12.4911 10.8225C11.3722 10.0497 9.77902 9.82924 8.66016 10.7221C7.05859 11.8298 6.98605 14.4442 8.52623 15.6356C10.0246 16.9944 12.8566 16.3192 13.2723 14.2377C12.3348 14.2238 11.3917 14.2377 10.4542 14.207C10.4515 13.6462 10.4487 13.0882 10.4515 12.5273C12.0195 12.5218 13.5904 12.519 15.1613 12.5329C15.2533 13.8527 15.0776 15.2533 14.2684 16.3415ZM21.0346 13.9336C20.5658 13.9392 20.0971 13.942 19.6283 13.9448C19.6228 14.4135 19.62 14.8823 19.62 15.351H18.2165C18.2109 14.8823 18.2109 14.4163 18.2081 13.9475C17.7394 13.942 17.2706 13.9392 16.8019 13.9336V12.5357C17.2706 12.5301 17.7394 12.5273 18.2081 12.5273C18.2109 12.0586 18.2165 11.5898 18.2193 11.1211H19.62L19.6283 12.5273C20.0971 12.5329 20.5658 12.5329 21.0346 12.5357V13.9336Z" fill="#FF3D00"/>
</svg>
