<svg width="16" height="16" viewBox="0 0 16 16" fill="none" xmlns="http://www.w3.org/2000/svg">
<path d="M15.5 8C15.5 9.48336 15.0601 10.9334 14.236 12.1668C13.4119 13.4001 12.2406 14.3614 10.8701 14.9291C9.49968 15.4967 7.99168 15.6453 6.53682 15.3559C5.08197 15.0665 3.7456 14.3522 2.6967 13.3033C1.64781 12.2544 0.933503 10.918 0.644114 9.46317C0.354725 8.00832 0.50325 6.50032 1.07091 5.12987C1.63856 3.75943 2.59986 2.58809 3.83323 1.76398C5.06659 0.939867 6.51664 0.5 8 0.5C9.98912 0.5 11.8968 1.29018 13.3033 2.6967C14.7098 4.10322 15.5 6.01087 15.5 8ZM12.5188 6.65C12.6845 6.48424 12.7776 6.25942 12.7776 6.025C12.7776 5.79058 12.6845 5.56576 12.5188 5.4C12.353 5.23424 12.1282 5.14112 11.8938 5.14112C11.6593 5.14112 11.4345 5.23424 11.2687 5.4L7.0375 9.63125L4.875 7.475C4.70924 7.30924 4.48442 7.21611 4.25 7.21611C4.01558 7.21611 3.79076 7.30924 3.625 7.475C3.45924 7.64076 3.36612 7.86558 3.36612 8.1C3.36612 8.33442 3.45924 8.55924 3.625 8.725L7.03125 12.1312L12.5188 6.65Z" fill="#439F23"/>
</svg>
